<?xml version="1.0" encoding="UTF-8" standalone="no"?>
<!DOCTYPE svg PUBLIC "-//W3C//DTD SVG 1.1//EN"
 "http://www.w3.org/Graphics/SVG/1.1/DTD/svg11.dtd">
<!-- Generated by graphviz version 2.43.0 (0)
 -->
<!-- Title: %3 Pages: 1 -->
<svg width="2041pt" height="238pt"
 viewBox="0.00 0.00 2041.00 237.74" xmlns="http://www.w3.org/2000/svg" xmlns:xlink="http://www.w3.org/1999/xlink">
<g id="graph0" class="graph" transform="scale(1 1) rotate(0) translate(36 201.74)">
<title>%3</title>
<polygon fill="dimgray" stroke="transparent" points="-36,36 -36,-201.74 2005,-201.74 2005,36 -36,36"/>
<text text-anchor="middle" x="984.5" y="-150.54" font-family="Helvetica,sans-Serif" font-size="14.00">Sweep&#39;s Plan &amp; Progress</text>
<!-- start -->
<g id="node1" class="node">
<title>start</title>
</g>
<!-- de62e071&#45;58c3&#45;41cc&#45;b65f&#45;5d2c75159a9f -->
<g id="node3" class="node">
<title>de62e071&#45;58c3&#45;41cc&#45;b65f&#45;5d2c75159a9f</title>
<ellipse fill="#0ee832" stroke="black" cx="221.5" cy="-99.87" rx="105.22" ry="26.74"/>
<text text-anchor="middle" x="221.5" y="-103.67" font-family="Helvetica,sans-Serif" font-size="14.00">✓ Modify</text>
<text text-anchor="middle" x="221.5" y="-88.67" font-family="Helvetica,sans-Serif" font-size="14.00">src/scrapo/main.py</text>
</g>
<!-- start&#45;&gt;de62e071&#45;58c3&#45;41cc&#45;b65f&#45;5d2c75159a9f -->
<g id="edge10" class="edge">
<title>start&#45;&gt;de62e071&#45;58c3&#45;41cc&#45;b65f&#45;5d2c75159a9f</title>
<path fill="none" stroke="black" d="M65.2,-99.87C68.69,-99.87 84.91,-99.87 105.67,-99.87"/>
<polygon fill="black" stroke="black" points="105.84,-103.37 115.84,-99.87 105.84,-96.37 105.84,-103.37"/>
<text text-anchor="middle" x="90.57" y="-106.67" font-family="Helvetica,sans-Serif" font-size="14.00">Start</text>
</g>
<!-- end -->
<g id="node2" class="node">
<title>end</title>
</g>
<!-- 880373b0&#45;2490&#45;4158&#45;b08b&#45;e4eecb57bf92 -->
<g id="node4" class="node">
<title>880373b0&#45;2490&#45;4158&#45;b08b&#45;e4eecb57bf92</title>
<ellipse fill="white" stroke="black" cx="556.5" cy="-99.87" rx="143.59" ry="26.74"/>
<text text-anchor="middle" x="556.5" y="-103.67" font-family="Helvetica,sans-Serif" font-size="14.00">▶ Modify</text>
<text text-anchor="middle" x="556.5" y="-88.67" font-family="Helvetica,sans-Serif" font-size="14.00">src/scrapo/db_controller.py</text>
</g>
<!-- de62e071&#45;58c3&#45;41cc&#45;b65f&#45;5d2c75159a9f&#45;&gt;880373b0&#45;2490&#45;4158&#45;b08b&#45;e4eecb57bf92 -->
<g id="edge2" class="edge">
<title>de62e071&#45;58c3&#45;41cc&#45;b65f&#45;5d2c75159a9f&#45;&gt;880373b0&#45;2490&#45;4158&#45;b08b&#45;e4eecb57bf92</title>
<path fill="none" stroke="black" d="M327.17,-99.87C352.34,-99.87 377.52,-99.87 402.69,-99.87"/>
<polygon fill="black" stroke="black" points="402.72,-103.37 412.72,-99.87 402.72,-96.37 402.72,-103.37"/>
</g>
<!-- a0ec017c&#45;dff9&#45;4adc&#45;880c&#45;bd293321371c -->
<g id="node8" class="node">
<title>a0ec017c&#45;dff9&#45;4adc&#45;880c&#45;bd293321371c</title>
<polygon fill="#0ee832" stroke="black" points="341,-36 0,-36 0,0 341,0 341,-36"/>
<text text-anchor="middle" x="170.5" y="-14.3" font-family="Helvetica,sans-Serif" font-size="14.00">✓ Run GitHub Actions for `src/scrapo/main.py`</text>
</g>
<!-- de62e071&#45;58c3&#45;41cc&#45;b65f&#45;5d2c75159a9f&#45;&gt;a0ec017c&#45;dff9&#45;4adc&#45;880c&#45;bd293321371c -->
<g id="edge1" class="edge">
<title>de62e071&#45;58c3&#45;41cc&#45;b65f&#45;5d2c75159a9f&#45;&gt;a0ec017c&#45;dff9&#45;4adc&#45;880c&#45;bd293321371c</title>
<path fill="none" stroke="black" stroke-dasharray="5,2" d="M205.08,-73.16C199.32,-64.13 192.84,-53.98 187.06,-44.94"/>
<polygon fill="black" stroke="black" points="189.9,-42.88 181.57,-36.34 184,-46.65 189.9,-42.88"/>
</g>
<!-- f38e7426&#45;9ad6&#45;4585&#45;b338&#45;c6b671e5a05a -->
<g id="node5" class="node">
<title>f38e7426&#45;9ad6&#45;4585&#45;b338&#45;c6b671e5a05a</title>
<ellipse fill="white" stroke="black" cx="968.5" cy="-99.87" rx="142.67" ry="26.74"/>
<text text-anchor="middle" x="968.5" y="-103.67" font-family="Helvetica,sans-Serif" font-size="14.00">▶ Modify</text>
<text text-anchor="middle" x="968.5" y="-88.67" font-family="Helvetica,sans-Serif" font-size="14.00">src/scrapo/scrapper/util.py</text>
</g>
<!-- 880373b0&#45;2490&#45;4158&#45;b08b&#45;e4eecb57bf92&#45;&gt;f38e7426&#45;9ad6&#45;4585&#45;b338&#45;c6b671e5a05a -->
<g id="edge4" class="edge">
<title>880373b0&#45;2490&#45;4158&#45;b08b&#45;e4eecb57bf92&#45;&gt;f38e7426&#45;9ad6&#45;4585&#45;b338&#45;c6b671e5a05a</title>
<path fill="none" stroke="black" d="M700.14,-99.87C738.47,-99.87 776.8,-99.87 815.13,-99.87"/>
<polygon fill="black" stroke="black" points="815.41,-103.37 825.41,-99.87 815.41,-96.37 815.41,-103.37"/>
</g>
<!-- 78faeb70&#45;b25b&#45;4a0c&#45;a33a&#45;6769d0e95542 -->
<g id="node9" class="node">
<title>78faeb70&#45;b25b&#45;4a0c&#45;a33a&#45;6769d0e95542</title>
<polygon fill="white" stroke="black" points="753.5,-36 359.5,-36 359.5,0 753.5,0 753.5,-36"/>
<text text-anchor="middle" x="556.5" y="-14.3" font-family="Helvetica,sans-Serif" font-size="14.00">▶ Run GitHub Actions for `src/scrapo/db_controller.py`</text>
</g>
<!-- 880373b0&#45;2490&#45;4158&#45;b08b&#45;e4eecb57bf92&#45;&gt;78faeb70&#45;b25b&#45;4a0c&#45;a33a&#45;6769d0e95542 -->
<g id="edge3" class="edge">
<title>880373b0&#45;2490&#45;4158&#45;b08b&#45;e4eecb57bf92&#45;&gt;78faeb70&#45;b25b&#45;4a0c&#45;a33a&#45;6769d0e95542</title>
<path fill="none" stroke="black" stroke-dasharray="5,2" d="M556.5,-72.72C556.5,-64.27 556.5,-54.89 556.5,-46.36"/>
<polygon fill="black" stroke="black" points="560,-46.15 556.5,-36.15 553,-46.15 560,-46.15"/>
</g>
<!-- bbeec47a&#45;2a3f&#45;4e3c&#45;9678&#45;e37132f52931 -->
<g id="node6" class="node">
<title>bbeec47a&#45;2a3f&#45;4e3c&#45;9678&#45;e37132f52931</title>
<ellipse fill="white" stroke="black" cx="1369.5" cy="-99.87" rx="128.89" ry="26.74"/>
<text text-anchor="middle" x="1369.5" y="-103.67" font-family="Helvetica,sans-Serif" font-size="14.00">▶ Modify</text>
<text text-anchor="middle" x="1369.5" y="-88.67" font-family="Helvetica,sans-Serif" font-size="14.00">src/scrapo/bot/reddit.py</text>
</g>
<!-- f38e7426&#45;9ad6&#45;4585&#45;b338&#45;c6b671e5a05a&#45;&gt;bbeec47a&#45;2a3f&#45;4e3c&#45;9678&#45;e37132f52931 -->
<g id="edge6" class="edge">
<title>f38e7426&#45;9ad6&#45;4585&#45;b338&#45;c6b671e5a05a&#45;&gt;bbeec47a&#45;2a3f&#45;4e3c&#45;9678&#45;e37132f52931</title>
<path fill="none" stroke="black" d="M1111.43,-99.87C1151.16,-99.87 1190.89,-99.87 1230.62,-99.87"/>
<polygon fill="black" stroke="black" points="1230.72,-103.37 1240.72,-99.87 1230.72,-96.37 1230.72,-103.37"/>
</g>
<!-- 0f4db16b&#45;6dd1&#45;4786&#45;93ca&#45;c1853e569949 -->
<g id="node10" class="node">
<title>0f4db16b&#45;6dd1&#45;4786&#45;93ca&#45;c1853e569949</title>
<polygon fill="white" stroke="black" points="1165,-36 772,-36 772,0 1165,0 1165,-36"/>
<text text-anchor="middle" x="968.5" y="-14.3" font-family="Helvetica,sans-Serif" font-size="14.00">▶ Run GitHub Actions for `src/scrapo/scrapper/util.py`</text>
</g>
<!-- f38e7426&#45;9ad6&#45;4585&#45;b338&#45;c6b671e5a05a&#45;&gt;0f4db16b&#45;6dd1&#45;4786&#45;93ca&#45;c1853e569949 -->
<g id="edge5" class="edge">
<title>f38e7426&#45;9ad6&#45;4585&#45;b338&#45;c6b671e5a05a&#45;&gt;0f4db16b&#45;6dd1&#45;4786&#45;93ca&#45;c1853e569949</title>
<path fill="none" stroke="black" stroke-dasharray="5,2" d="M968.5,-72.72C968.5,-64.27 968.5,-54.89 968.5,-46.36"/>
<polygon fill="black" stroke="black" points="972,-46.15 968.5,-36.15 965,-46.15 972,-46.15"/>
</g>
<!-- 11756890&#45;ae47&#45;4d4b&#45;a73a&#45;adef38e8e56d -->
<g id="node7" class="node">
<title>11756890&#45;ae47&#45;4d4b&#45;a73a&#45;adef38e8e56d</title>
<ellipse fill="white" stroke="black" cx="1724.5" cy="-99.87" rx="143.59" ry="26.74"/>
<text text-anchor="middle" x="1724.5" y="-103.67" font-family="Helvetica,sans-Serif" font-size="14.00">▶ Modify</text>
<text text-anchor="middle" x="1724.5" y="-88.67" font-family="Helvetica,sans-Serif" font-size="14.00">src/scrapo/bot/telegram.py</text>
</g>
<!-- bbeec47a&#45;2a3f&#45;4e3c&#45;9678&#45;e37132f52931&#45;&gt;11756890&#45;ae47&#45;4d4b&#45;a73a&#45;adef38e8e56d -->
<g id="edge8" class="edge">
<title>bbeec47a&#45;2a3f&#45;4e3c&#45;9678&#45;e37132f52931&#45;&gt;11756890&#45;ae47&#45;4d4b&#45;a73a&#45;adef38e8e56d</title>
<path fill="none" stroke="black" d="M1498.46,-99.87C1522.41,-99.87 1546.36,-99.87 1570.31,-99.87"/>
<polygon fill="black" stroke="black" points="1570.58,-103.37 1580.58,-99.87 1570.58,-96.37 1570.58,-103.37"/>
</g>
<!-- f1d8dd55&#45;fa96&#45;4ee1&#45;9858&#45;458ac817594b -->
<g id="node11" class="node">
<title>f1d8dd55&#45;fa96&#45;4ee1&#45;9858&#45;458ac817594b</title>
<polygon fill="white" stroke="black" points="1556,-36 1183,-36 1183,0 1556,0 1556,-36"/>
<text text-anchor="middle" x="1369.5" y="-14.3" font-family="Helvetica,sans-Serif" font-size="14.00">▶ Run GitHub Actions for `src/scrapo/bot/reddit.py`</text>
</g>
<!-- bbeec47a&#45;2a3f&#45;4e3c&#45;9678&#45;e37132f52931&#45;&gt;f1d8dd55&#45;fa96&#45;4ee1&#45;9858&#45;458ac817594b -->
<g id="edge7" class="edge">
<title>bbeec47a&#45;2a3f&#45;4e3c&#45;9678&#45;e37132f52931&#45;&gt;f1d8dd55&#45;fa96&#45;4ee1&#45;9858&#45;458ac817594b</title>
<path fill="none" stroke="black" stroke-dasharray="5,2" d="M1369.5,-72.72C1369.5,-64.27 1369.5,-54.89 1369.5,-46.36"/>
<polygon fill="black" stroke="black" points="1373,-46.15 1369.5,-36.15 1366,-46.15 1373,-46.15"/>
</g>
<!-- 11756890&#45;ae47&#45;4d4b&#45;a73a&#45;adef38e8e56d&#45;&gt;end -->
<g id="edge11" class="edge">
<title>11756890&#45;ae47&#45;4d4b&#45;a73a&#45;adef38e8e56d&#45;&gt;end</title>
<path fill="none" stroke="black" d="M1868.07,-99.87C1887.87,-99.87 1905,-99.87 1915.5,-99.87"/>
<polygon fill="black" stroke="black" points="1915.84,-103.37 1925.84,-99.87 1915.84,-96.37 1915.84,-103.37"/>
<text text-anchor="middle" x="1897.02" y="-106.67" font-family="Helvetica,sans-Serif" font-size="14.00">Finish</text>
</g>
<!-- fc53871d&#45;3431&#45;4b45&#45;952a&#45;988d93b0a6a2 -->
<g id="node12" class="node">
<title>fc53871d&#45;3431&#45;4b45&#45;952a&#45;988d93b0a6a2</title>
<polygon fill="white" stroke="black" points="1969,-36 1574,-36 1574,0 1969,0 1969,-36"/>
<text text-anchor="middle" x="1771.5" y="-14.3" font-family="Helvetica,sans-Serif" font-size="14.00">▶ Run GitHub Actions for `src/scrapo/bot/telegram.py`</text>
</g>
<!-- 11756890&#45;ae47&#45;4d4b&#45;a73a&#45;adef38e8e56d&#45;&gt;fc53871d&#45;3431&#45;4b45&#45;952a&#45;988d93b0a6a2 -->
<g id="edge9" class="edge">
<title>11756890&#45;ae47&#45;4d4b&#45;a73a&#45;adef38e8e56d&#45;&gt;fc53871d&#45;3431&#45;4b45&#45;952a&#45;988d93b0a6a2</title>
<path fill="none" stroke="black" stroke-dasharray="5,2" d="M1739.89,-72.72C1745.14,-63.8 1751,-53.84 1756.23,-44.95"/>
<polygon fill="black" stroke="black" points="1759.35,-46.54 1761.41,-36.15 1753.32,-42.99 1759.35,-46.54"/>
</g>
</g>
</svg>
