<?xml version="1.0" encoding="UTF-8" standalone="no"?>
<!DOCTYPE svg PUBLIC "-//W3C//DTD SVG 1.1//EN"
 "http://www.w3.org/Graphics/SVG/1.1/DTD/svg11.dtd">
<!-- Generated by graphviz version 2.43.0 (0)
 -->
<!-- Title: %3 Pages: 1 -->
<svg width="2045pt" height="238pt"
 viewBox="0.00 0.00 2045.00 237.74" xmlns="http://www.w3.org/2000/svg" xmlns:xlink="http://www.w3.org/1999/xlink">
<g id="graph0" class="graph" transform="scale(1 1) rotate(0) translate(36 201.74)">
<title>%3</title>
<polygon fill="dimgray" stroke="transparent" points="-36,36 -36,-201.74 2009,-201.74 2009,36 -36,36"/>
<text text-anchor="middle" x="986.5" y="-150.54" font-family="Helvetica,sans-Serif" font-size="14.00">Sweep&#39;s Plan &amp; Progress</text>
<!-- start -->
<g id="node1" class="node">
<title>start</title>
</g>
<!-- de62e071&#45;58c3&#45;41cc&#45;b65f&#45;5d2c75159a9f -->
<g id="node3" class="node">
<title>de62e071&#45;58c3&#45;41cc&#45;b65f&#45;5d2c75159a9f</title>
<ellipse fill="#0ee832" stroke="black" cx="221.5" cy="-99.87" rx="105.22" ry="26.74"/>
<text text-anchor="middle" x="221.5" y="-103.67" font-family="Helvetica,sans-Serif" font-size="14.00">✓ Modify</text>
<text text-anchor="middle" x="221.5" y="-88.67" font-family="Helvetica,sans-Serif" font-size="14.00">src/scrapo/main.py</text>
</g>
<!-- start&#45;&gt;de62e071&#45;58c3&#45;41cc&#45;b65f&#45;5d2c75159a9f -->
<g id="edge10" class="edge">
<title>start&#45;&gt;de62e071&#45;58c3&#45;41cc&#45;b65f&#45;5d2c75159a9f</title>
<path fill="none" stroke="black" d="M65.2,-99.87C68.69,-99.87 84.91,-99.87 105.67,-99.87"/>
<polygon fill="black" stroke="black" points="105.84,-103.37 115.84,-99.87 105.84,-96.37 105.84,-103.37"/>
<text text-anchor="middle" x="90.57" y="-106.67" font-family="Helvetica,sans-Serif" font-size="14.00">Start</text>
</g>
<!-- end -->
<g id="node2" class="node">
<title>end</title>
</g>
<!-- 880373b0&#45;2490&#45;4158&#45;b08b&#45;e4eecb57bf92 -->
<g id="node4" class="node">
<title>880373b0&#45;2490&#45;4158&#45;b08b&#45;e4eecb57bf92</title>
<ellipse fill="#0ee832" stroke="black" cx="556.5" cy="-99.87" rx="143.59" ry="26.74"/>
<text text-anchor="middle" x="556.5" y="-103.67" font-family="Helvetica,sans-Serif" font-size="14.00">✓ Modify</text>
<text text-anchor="middle" x="556.5" y="-88.67" font-family="Helvetica,sans-Serif" font-size="14.00">src/scrapo/db_controller.py</text>
</g>
<!-- de62e071&#45;58c3&#45;41cc&#45;b65f&#45;5d2c75159a9f&#45;&gt;880373b0&#45;2490&#45;4158&#45;b08b&#45;e4eecb57bf92 -->
<g id="edge2" class="edge">
<title>de62e071&#45;58c3&#45;41cc&#45;b65f&#45;5d2c75159a9f&#45;&gt;880373b0&#45;2490&#45;4158&#45;b08b&#45;e4eecb57bf92</title>
<path fill="none" stroke="black" d="M327.17,-99.87C352.34,-99.87 377.52,-99.87 402.69,-99.87"/>
<polygon fill="black" stroke="black" points="402.72,-103.37 412.72,-99.87 402.72,-96.37 402.72,-103.37"/>
</g>
<!-- a0ec017c&#45;dff9&#45;4adc&#45;880c&#45;bd293321371c -->
<g id="node8" class="node">
<title>a0ec017c&#45;dff9&#45;4adc&#45;880c&#45;bd293321371c</title>
<polygon fill="#0ee832" stroke="black" points="341,-36 0,-36 0,0 341,0 341,-36"/>
<text text-anchor="middle" x="170.5" y="-14.3" font-family="Helvetica,sans-Serif" font-size="14.00">✓ Run GitHub Actions for `src/scrapo/main.py`</text>
</g>
<!-- de62e071&#45;58c3&#45;41cc&#45;b65f&#45;5d2c75159a9f&#45;&gt;a0ec017c&#45;dff9&#45;4adc&#45;880c&#45;bd293321371c -->
<g id="edge1" class="edge">
<title>de62e071&#45;58c3&#45;41cc&#45;b65f&#45;5d2c75159a9f&#45;&gt;a0ec017c&#45;dff9&#45;4adc&#45;880c&#45;bd293321371c</title>
<path fill="none" stroke="black" stroke-dasharray="5,2" d="M205.08,-73.16C199.32,-64.13 192.84,-53.98 187.06,-44.94"/>
<polygon fill="black" stroke="black" points="189.9,-42.88 181.57,-36.34 184,-46.65 189.9,-42.88"/>
</g>
<!-- f38e7426&#45;9ad6&#45;4585&#45;b338&#45;c6b671e5a05a -->
<g id="node5" class="node">
<title>f38e7426&#45;9ad6&#45;4585&#45;b338&#45;c6b671e5a05a</title>
<ellipse fill="#0ee832" stroke="black" cx="969.5" cy="-99.87" rx="142.67" ry="26.74"/>
<text text-anchor="middle" x="969.5" y="-103.67" font-family="Helvetica,sans-Serif" font-size="14.00">✓ Modify</text>
<text text-anchor="middle" x="969.5" y="-88.67" font-family="Helvetica,sans-Serif" font-size="14.00">src/scrapo/scrapper/util.py</text>
</g>
<!-- 880373b0&#45;2490&#45;4158&#45;b08b&#45;e4eecb57bf92&#45;&gt;f38e7426&#45;9ad6&#45;4585&#45;b338&#45;c6b671e5a05a -->
<g id="edge4" class="edge">
<title>880373b0&#45;2490&#45;4158&#45;b08b&#45;e4eecb57bf92&#45;&gt;f38e7426&#45;9ad6&#45;4585&#45;b338&#45;c6b671e5a05a</title>
<path fill="none" stroke="black" d="M700.08,-99.87C738.81,-99.87 777.53,-99.87 816.25,-99.87"/>
<polygon fill="black" stroke="black" points="816.63,-103.37 826.63,-99.87 816.63,-96.37 816.63,-103.37"/>
</g>
<!-- 78faeb70&#45;b25b&#45;4a0c&#45;a33a&#45;6769d0e95542 -->
<g id="node9" class="node">
<title>78faeb70&#45;b25b&#45;4a0c&#45;a33a&#45;6769d0e95542</title>
<polygon fill="#0ee832" stroke="black" points="754,-36 359,-36 359,0 754,0 754,-36"/>
<text text-anchor="middle" x="556.5" y="-14.3" font-family="Helvetica,sans-Serif" font-size="14.00">✓ Run GitHub Actions for `src/scrapo/db_controller.py`</text>
</g>
<!-- 880373b0&#45;2490&#45;4158&#45;b08b&#45;e4eecb57bf92&#45;&gt;78faeb70&#45;b25b&#45;4a0c&#45;a33a&#45;6769d0e95542 -->
<g id="edge3" class="edge">
<title>880373b0&#45;2490&#45;4158&#45;b08b&#45;e4eecb57bf92&#45;&gt;78faeb70&#45;b25b&#45;4a0c&#45;a33a&#45;6769d0e95542</title>
<path fill="none" stroke="black" stroke-dasharray="5,2" d="M556.5,-72.72C556.5,-64.27 556.5,-54.89 556.5,-46.36"/>
<polygon fill="black" stroke="black" points="560,-46.15 556.5,-36.15 553,-46.15 560,-46.15"/>
</g>
<!-- bbeec47a&#45;2a3f&#45;4e3c&#45;9678&#45;e37132f52931 -->
<g id="node6" class="node">
<title>bbeec47a&#45;2a3f&#45;4e3c&#45;9678&#45;e37132f52931</title>
<ellipse fill="#0ee832" stroke="black" cx="1372.5" cy="-99.87" rx="128.89" ry="26.74"/>
<text text-anchor="middle" x="1372.5" y="-103.67" font-family="Helvetica,sans-Serif" font-size="14.00">✓ Modify</text>
<text text-anchor="middle" x="1372.5" y="-88.67" font-family="Helvetica,sans-Serif" font-size="14.00">src/scrapo/bot/reddit.py</text>
</g>
<!-- f38e7426&#45;9ad6&#45;4585&#45;b338&#45;c6b671e5a05a&#45;&gt;bbeec47a&#45;2a3f&#45;4e3c&#45;9678&#45;e37132f52931 -->
<g id="edge6" class="edge">
<title>f38e7426&#45;9ad6&#45;4585&#45;b338&#45;c6b671e5a05a&#45;&gt;bbeec47a&#45;2a3f&#45;4e3c&#45;9678&#45;e37132f52931</title>
<path fill="none" stroke="black" d="M1112.36,-99.87C1152.81,-99.87 1193.25,-99.87 1233.7,-99.87"/>
<polygon fill="black" stroke="black" points="1233.7,-103.37 1243.7,-99.87 1233.7,-96.37 1233.7,-103.37"/>
</g>
<!-- 0f4db16b&#45;6dd1&#45;4786&#45;93ca&#45;c1853e569949 -->
<g id="node10" class="node">
<title>0f4db16b&#45;6dd1&#45;4786&#45;93ca&#45;c1853e569949</title>
<polygon fill="#0ee832" stroke="black" points="1167,-36 772,-36 772,0 1167,0 1167,-36"/>
<text text-anchor="middle" x="969.5" y="-14.3" font-family="Helvetica,sans-Serif" font-size="14.00">✓ Run GitHub Actions for `src/scrapo/scrapper/util.py`</text>
</g>
<!-- f38e7426&#45;9ad6&#45;4585&#45;b338&#45;c6b671e5a05a&#45;&gt;0f4db16b&#45;6dd1&#45;4786&#45;93ca&#45;c1853e569949 -->
<g id="edge5" class="edge">
<title>f38e7426&#45;9ad6&#45;4585&#45;b338&#45;c6b671e5a05a&#45;&gt;0f4db16b&#45;6dd1&#45;4786&#45;93ca&#45;c1853e569949</title>
<path fill="none" stroke="black" stroke-dasharray="5,2" d="M969.5,-72.72C969.5,-64.27 969.5,-54.89 969.5,-46.36"/>
<polygon fill="black" stroke="black" points="973,-46.15 969.5,-36.15 966,-46.15 973,-46.15"/>
</g>
<!-- 11756890&#45;ae47&#45;4d4b&#45;a73a&#45;adef38e8e56d -->
<g id="node7" class="node">
<title>11756890&#45;ae47&#45;4d4b&#45;a73a&#45;adef38e8e56d</title>
<ellipse fill="white" stroke="black" cx="1728.5" cy="-99.87" rx="143.59" ry="26.74"/>
<text text-anchor="middle" x="1728.5" y="-103.67" font-family="Helvetica,sans-Serif" font-size="14.00">▶ Modify</text>
<text text-anchor="middle" x="1728.5" y="-88.67" font-family="Helvetica,sans-Serif" font-size="14.00">src/scrapo/bot/telegram.py</text>
</g>
<!-- bbeec47a&#45;2a3f&#45;4e3c&#45;9678&#45;e37132f52931&#45;&gt;11756890&#45;ae47&#45;4d4b&#45;a73a&#45;adef38e8e56d -->
<g id="edge8" class="edge">
<title>bbeec47a&#45;2a3f&#45;4e3c&#45;9678&#45;e37132f52931&#45;&gt;11756890&#45;ae47&#45;4d4b&#45;a73a&#45;adef38e8e56d</title>
<path fill="none" stroke="black" d="M1501.48,-99.87C1525.9,-99.87 1550.32,-99.87 1574.74,-99.87"/>
<polygon fill="black" stroke="black" points="1574.84,-103.37 1584.84,-99.87 1574.84,-96.37 1574.84,-103.37"/>
</g>
<!-- f1d8dd55&#45;fa96&#45;4ee1&#45;9858&#45;458ac817594b -->
<g id="node11" class="node">
<title>f1d8dd55&#45;fa96&#45;4ee1&#45;9858&#45;458ac817594b</title>
<polygon fill="#0ee832" stroke="black" points="1559.5,-36 1185.5,-36 1185.5,0 1559.5,0 1559.5,-36"/>
<text text-anchor="middle" x="1372.5" y="-14.3" font-family="Helvetica,sans-Serif" font-size="14.00">✓ Run GitHub Actions for `src/scrapo/bot/reddit.py`</text>
</g>
<!-- bbeec47a&#45;2a3f&#45;4e3c&#45;9678&#45;e37132f52931&#45;&gt;f1d8dd55&#45;fa96&#45;4ee1&#45;9858&#45;458ac817594b -->
<g id="edge7" class="edge">
<title>bbeec47a&#45;2a3f&#45;4e3c&#45;9678&#45;e37132f52931&#45;&gt;f1d8dd55&#45;fa96&#45;4ee1&#45;9858&#45;458ac817594b</title>
<path fill="none" stroke="black" stroke-dasharray="5,2" d="M1372.5,-72.72C1372.5,-64.27 1372.5,-54.89 1372.5,-46.36"/>
<polygon fill="black" stroke="black" points="1376,-46.15 1372.5,-36.15 1369,-46.15 1376,-46.15"/>
</g>
<!-- 11756890&#45;ae47&#45;4d4b&#45;a73a&#45;adef38e8e56d&#45;&gt;end -->
<g id="edge11" class="edge">
<title>11756890&#45;ae47&#45;4d4b&#45;a73a&#45;adef38e8e56d&#45;&gt;end</title>
<path fill="none" stroke="black" d="M1872.07,-99.87C1891.87,-99.87 1909,-99.87 1919.5,-99.87"/>
<polygon fill="black" stroke="black" points="1919.84,-103.37 1929.84,-99.87 1919.84,-96.37 1919.84,-103.37"/>
<text text-anchor="middle" x="1901.02" y="-106.67" font-family="Helvetica,sans-Serif" font-size="14.00">Finish</text>
</g>
<!-- fc53871d&#45;3431&#45;4b45&#45;952a&#45;988d93b0a6a2 -->
<g id="node12" class="node">
<title>fc53871d&#45;3431&#45;4b45&#45;952a&#45;988d93b0a6a2</title>
<polygon fill="white" stroke="black" points="1973,-36 1578,-36 1578,0 1973,0 1973,-36"/>
<text text-anchor="middle" x="1775.5" y="-14.3" font-family="Helvetica,sans-Serif" font-size="14.00">▶ Run GitHub Actions for `src/scrapo/bot/telegram.py`</text>
</g>
<!-- 11756890&#45;ae47&#45;4d4b&#45;a73a&#45;adef38e8e56d&#45;&gt;fc53871d&#45;3431&#45;4b45&#45;952a&#45;988d93b0a6a2 -->
<g id="edge9" class="edge">
<title>11756890&#45;ae47&#45;4d4b&#45;a73a&#45;adef38e8e56d&#45;&gt;fc53871d&#45;3431&#45;4b45&#45;952a&#45;988d93b0a6a2</title>
<path fill="none" stroke="black" stroke-dasharray="5,2" d="M1743.89,-72.72C1749.14,-63.8 1755,-53.84 1760.23,-44.95"/>
<polygon fill="black" stroke="black" points="1763.35,-46.54 1765.41,-36.15 1757.32,-42.99 1763.35,-46.54"/>
</g>
</g>
</svg>
