<?xml version="1.0" encoding="UTF-8" standalone="no"?>
<!DOCTYPE svg PUBLIC "-//W3C//DTD SVG 1.1//EN"
 "http://www.w3.org/Graphics/SVG/1.1/DTD/svg11.dtd">
<!-- Generated by graphviz version 2.43.0 (0)
 -->
<!-- Title: %3 Pages: 1 -->
<svg width="2040pt" height="238pt"
 viewBox="0.00 0.00 2039.50 237.74" xmlns="http://www.w3.org/2000/svg" xmlns:xlink="http://www.w3.org/1999/xlink">
<g id="graph0" class="graph" transform="scale(1 1) rotate(0) translate(36 201.74)">
<title>%3</title>
<polygon fill="dimgray" stroke="transparent" points="-36,36 -36,-201.74 2003.5,-201.74 2003.5,36 -36,36"/>
<text text-anchor="middle" x="983.75" y="-150.54" font-family="Helvetica,sans-Serif" font-size="14.00">Sweep&#39;s Plan &amp; Progress</text>
<!-- start -->
<g id="node1" class="node">
<title>start</title>
</g>
<!-- de62e071&#45;58c3&#45;41cc&#45;b65f&#45;5d2c75159a9f -->
<g id="node3" class="node">
<title>de62e071&#45;58c3&#45;41cc&#45;b65f&#45;5d2c75159a9f</title>
<ellipse fill="yellow" stroke="black" cx="220" cy="-99.87" rx="105.22" ry="26.74"/>
<text text-anchor="middle" x="220" y="-103.67" font-family="Helvetica,sans-Serif" font-size="14.00">⋯ Modify</text>
<text text-anchor="middle" x="220" y="-88.67" font-family="Helvetica,sans-Serif" font-size="14.00">src/scrapo/main.py</text>
</g>
<!-- start&#45;&gt;de62e071&#45;58c3&#45;41cc&#45;b65f&#45;5d2c75159a9f -->
<g id="edge10" class="edge">
<title>start&#45;&gt;de62e071&#45;58c3&#45;41cc&#45;b65f&#45;5d2c75159a9f</title>
<path fill="none" stroke="black" d="M63.7,-99.87C67.19,-99.87 83.41,-99.87 104.17,-99.87"/>
<polygon fill="black" stroke="black" points="104.34,-103.37 114.34,-99.87 104.34,-96.37 104.34,-103.37"/>
<text text-anchor="middle" x="89.07" y="-106.67" font-family="Helvetica,sans-Serif" font-size="14.00">Start</text>
</g>
<!-- end -->
<g id="node2" class="node">
<title>end</title>
</g>
<!-- 880373b0&#45;2490&#45;4158&#45;b08b&#45;e4eecb57bf92 -->
<g id="node4" class="node">
<title>880373b0&#45;2490&#45;4158&#45;b08b&#45;e4eecb57bf92</title>
<ellipse fill="white" stroke="black" cx="555" cy="-99.87" rx="143.59" ry="26.74"/>
<text text-anchor="middle" x="555" y="-103.67" font-family="Helvetica,sans-Serif" font-size="14.00">▶ Modify</text>
<text text-anchor="middle" x="555" y="-88.67" font-family="Helvetica,sans-Serif" font-size="14.00">src/scrapo/db_controller.py</text>
</g>
<!-- de62e071&#45;58c3&#45;41cc&#45;b65f&#45;5d2c75159a9f&#45;&gt;880373b0&#45;2490&#45;4158&#45;b08b&#45;e4eecb57bf92 -->
<g id="edge2" class="edge">
<title>de62e071&#45;58c3&#45;41cc&#45;b65f&#45;5d2c75159a9f&#45;&gt;880373b0&#45;2490&#45;4158&#45;b08b&#45;e4eecb57bf92</title>
<path fill="none" stroke="black" d="M325.67,-99.87C350.84,-99.87 376.02,-99.87 401.19,-99.87"/>
<polygon fill="black" stroke="black" points="401.22,-103.37 411.22,-99.87 401.22,-96.37 401.22,-103.37"/>
</g>
<!-- a0ec017c&#45;dff9&#45;4adc&#45;880c&#45;bd293321371c -->
<g id="node8" class="node">
<title>a0ec017c&#45;dff9&#45;4adc&#45;880c&#45;bd293321371c</title>
<polygon fill="white" stroke="black" points="340,-36 0,-36 0,0 340,0 340,-36"/>
<text text-anchor="middle" x="170" y="-14.3" font-family="Helvetica,sans-Serif" font-size="14.00">▶ Run GitHub Actions for `src/scrapo/main.py`</text>
</g>
<!-- de62e071&#45;58c3&#45;41cc&#45;b65f&#45;5d2c75159a9f&#45;&gt;a0ec017c&#45;dff9&#45;4adc&#45;880c&#45;bd293321371c -->
<g id="edge1" class="edge">
<title>de62e071&#45;58c3&#45;41cc&#45;b65f&#45;5d2c75159a9f&#45;&gt;a0ec017c&#45;dff9&#45;4adc&#45;880c&#45;bd293321371c</title>
<path fill="none" stroke="black" stroke-dasharray="5,2" d="M203.9,-73.16C198.25,-64.13 191.9,-53.98 186.24,-44.94"/>
<polygon fill="black" stroke="black" points="189.13,-42.96 180.85,-36.34 183.19,-46.67 189.13,-42.96"/>
</g>
<!-- f38e7426&#45;9ad6&#45;4585&#45;b338&#45;c6b671e5a05a -->
<g id="node5" class="node">
<title>f38e7426&#45;9ad6&#45;4585&#45;b338&#45;c6b671e5a05a</title>
<ellipse fill="white" stroke="black" cx="967" cy="-99.87" rx="142.67" ry="26.74"/>
<text text-anchor="middle" x="967" y="-103.67" font-family="Helvetica,sans-Serif" font-size="14.00">▶ Modify</text>
<text text-anchor="middle" x="967" y="-88.67" font-family="Helvetica,sans-Serif" font-size="14.00">src/scrapo/scrapper/util.py</text>
</g>
<!-- 880373b0&#45;2490&#45;4158&#45;b08b&#45;e4eecb57bf92&#45;&gt;f38e7426&#45;9ad6&#45;4585&#45;b338&#45;c6b671e5a05a -->
<g id="edge4" class="edge">
<title>880373b0&#45;2490&#45;4158&#45;b08b&#45;e4eecb57bf92&#45;&gt;f38e7426&#45;9ad6&#45;4585&#45;b338&#45;c6b671e5a05a</title>
<path fill="none" stroke="black" d="M698.64,-99.87C736.97,-99.87 775.3,-99.87 813.63,-99.87"/>
<polygon fill="black" stroke="black" points="813.91,-103.37 823.91,-99.87 813.91,-96.37 813.91,-103.37"/>
</g>
<!-- 78faeb70&#45;b25b&#45;4a0c&#45;a33a&#45;6769d0e95542 -->
<g id="node9" class="node">
<title>78faeb70&#45;b25b&#45;4a0c&#45;a33a&#45;6769d0e95542</title>
<polygon fill="white" stroke="black" points="752,-36 358,-36 358,0 752,0 752,-36"/>
<text text-anchor="middle" x="555" y="-14.3" font-family="Helvetica,sans-Serif" font-size="14.00">▶ Run GitHub Actions for `src/scrapo/db_controller.py`</text>
</g>
<!-- 880373b0&#45;2490&#45;4158&#45;b08b&#45;e4eecb57bf92&#45;&gt;78faeb70&#45;b25b&#45;4a0c&#45;a33a&#45;6769d0e95542 -->
<g id="edge3" class="edge">
<title>880373b0&#45;2490&#45;4158&#45;b08b&#45;e4eecb57bf92&#45;&gt;78faeb70&#45;b25b&#45;4a0c&#45;a33a&#45;6769d0e95542</title>
<path fill="none" stroke="black" stroke-dasharray="5,2" d="M555,-72.72C555,-64.27 555,-54.89 555,-46.36"/>
<polygon fill="black" stroke="black" points="558.5,-46.15 555,-36.15 551.5,-46.15 558.5,-46.15"/>
</g>
<!-- bbeec47a&#45;2a3f&#45;4e3c&#45;9678&#45;e37132f52931 -->
<g id="node6" class="node">
<title>bbeec47a&#45;2a3f&#45;4e3c&#45;9678&#45;e37132f52931</title>
<ellipse fill="white" stroke="black" cx="1368" cy="-99.87" rx="128.89" ry="26.74"/>
<text text-anchor="middle" x="1368" y="-103.67" font-family="Helvetica,sans-Serif" font-size="14.00">▶ Modify</text>
<text text-anchor="middle" x="1368" y="-88.67" font-family="Helvetica,sans-Serif" font-size="14.00">src/scrapo/bot/reddit.py</text>
</g>
<!-- f38e7426&#45;9ad6&#45;4585&#45;b338&#45;c6b671e5a05a&#45;&gt;bbeec47a&#45;2a3f&#45;4e3c&#45;9678&#45;e37132f52931 -->
<g id="edge6" class="edge">
<title>f38e7426&#45;9ad6&#45;4585&#45;b338&#45;c6b671e5a05a&#45;&gt;bbeec47a&#45;2a3f&#45;4e3c&#45;9678&#45;e37132f52931</title>
<path fill="none" stroke="black" d="M1109.93,-99.87C1149.66,-99.87 1189.39,-99.87 1229.12,-99.87"/>
<polygon fill="black" stroke="black" points="1229.22,-103.37 1239.22,-99.87 1229.22,-96.37 1229.22,-103.37"/>
</g>
<!-- 0f4db16b&#45;6dd1&#45;4786&#45;93ca&#45;c1853e569949 -->
<g id="node10" class="node">
<title>0f4db16b&#45;6dd1&#45;4786&#45;93ca&#45;c1853e569949</title>
<polygon fill="white" stroke="black" points="1163.5,-36 770.5,-36 770.5,0 1163.5,0 1163.5,-36"/>
<text text-anchor="middle" x="967" y="-14.3" font-family="Helvetica,sans-Serif" font-size="14.00">▶ Run GitHub Actions for `src/scrapo/scrapper/util.py`</text>
</g>
<!-- f38e7426&#45;9ad6&#45;4585&#45;b338&#45;c6b671e5a05a&#45;&gt;0f4db16b&#45;6dd1&#45;4786&#45;93ca&#45;c1853e569949 -->
<g id="edge5" class="edge">
<title>f38e7426&#45;9ad6&#45;4585&#45;b338&#45;c6b671e5a05a&#45;&gt;0f4db16b&#45;6dd1&#45;4786&#45;93ca&#45;c1853e569949</title>
<path fill="none" stroke="black" stroke-dasharray="5,2" d="M967,-72.72C967,-64.27 967,-54.89 967,-46.36"/>
<polygon fill="black" stroke="black" points="970.5,-46.15 967,-36.15 963.5,-46.15 970.5,-46.15"/>
</g>
<!-- 11756890&#45;ae47&#45;4d4b&#45;a73a&#45;adef38e8e56d -->
<g id="node7" class="node">
<title>11756890&#45;ae47&#45;4d4b&#45;a73a&#45;adef38e8e56d</title>
<ellipse fill="white" stroke="black" cx="1723" cy="-99.87" rx="143.59" ry="26.74"/>
<text text-anchor="middle" x="1723" y="-103.67" font-family="Helvetica,sans-Serif" font-size="14.00">▶ Modify</text>
<text text-anchor="middle" x="1723" y="-88.67" font-family="Helvetica,sans-Serif" font-size="14.00">src/scrapo/bot/telegram.py</text>
</g>
<!-- bbeec47a&#45;2a3f&#45;4e3c&#45;9678&#45;e37132f52931&#45;&gt;11756890&#45;ae47&#45;4d4b&#45;a73a&#45;adef38e8e56d -->
<g id="edge8" class="edge">
<title>bbeec47a&#45;2a3f&#45;4e3c&#45;9678&#45;e37132f52931&#45;&gt;11756890&#45;ae47&#45;4d4b&#45;a73a&#45;adef38e8e56d</title>
<path fill="none" stroke="black" d="M1496.96,-99.87C1520.91,-99.87 1544.86,-99.87 1568.81,-99.87"/>
<polygon fill="black" stroke="black" points="1569.08,-103.37 1579.08,-99.87 1569.08,-96.37 1569.08,-103.37"/>
</g>
<!-- f1d8dd55&#45;fa96&#45;4ee1&#45;9858&#45;458ac817594b -->
<g id="node11" class="node">
<title>f1d8dd55&#45;fa96&#45;4ee1&#45;9858&#45;458ac817594b</title>
<polygon fill="white" stroke="black" points="1554.5,-36 1181.5,-36 1181.5,0 1554.5,0 1554.5,-36"/>
<text text-anchor="middle" x="1368" y="-14.3" font-family="Helvetica,sans-Serif" font-size="14.00">▶ Run GitHub Actions for `src/scrapo/bot/reddit.py`</text>
</g>
<!-- bbeec47a&#45;2a3f&#45;4e3c&#45;9678&#45;e37132f52931&#45;&gt;f1d8dd55&#45;fa96&#45;4ee1&#45;9858&#45;458ac817594b -->
<g id="edge7" class="edge">
<title>bbeec47a&#45;2a3f&#45;4e3c&#45;9678&#45;e37132f52931&#45;&gt;f1d8dd55&#45;fa96&#45;4ee1&#45;9858&#45;458ac817594b</title>
<path fill="none" stroke="black" stroke-dasharray="5,2" d="M1368,-72.72C1368,-64.27 1368,-54.89 1368,-46.36"/>
<polygon fill="black" stroke="black" points="1371.5,-46.15 1368,-36.15 1364.5,-46.15 1371.5,-46.15"/>
</g>
<!-- 11756890&#45;ae47&#45;4d4b&#45;a73a&#45;adef38e8e56d&#45;&gt;end -->
<g id="edge11" class="edge">
<title>11756890&#45;ae47&#45;4d4b&#45;a73a&#45;adef38e8e56d&#45;&gt;end</title>
<path fill="none" stroke="black" d="M1866.57,-99.87C1886.37,-99.87 1903.5,-99.87 1914,-99.87"/>
<polygon fill="black" stroke="black" points="1914.34,-103.37 1924.34,-99.87 1914.34,-96.37 1914.34,-103.37"/>
<text text-anchor="middle" x="1895.52" y="-106.67" font-family="Helvetica,sans-Serif" font-size="14.00">Finish</text>
</g>
<!-- fc53871d&#45;3431&#45;4b45&#45;952a&#45;988d93b0a6a2 -->
<g id="node12" class="node">
<title>fc53871d&#45;3431&#45;4b45&#45;952a&#45;988d93b0a6a2</title>
<polygon fill="white" stroke="black" points="1967.5,-36 1572.5,-36 1572.5,0 1967.5,0 1967.5,-36"/>
<text text-anchor="middle" x="1770" y="-14.3" font-family="Helvetica,sans-Serif" font-size="14.00">▶ Run GitHub Actions for `src/scrapo/bot/telegram.py`</text>
</g>
<!-- 11756890&#45;ae47&#45;4d4b&#45;a73a&#45;adef38e8e56d&#45;&gt;fc53871d&#45;3431&#45;4b45&#45;952a&#45;988d93b0a6a2 -->
<g id="edge9" class="edge">
<title>11756890&#45;ae47&#45;4d4b&#45;a73a&#45;adef38e8e56d&#45;&gt;fc53871d&#45;3431&#45;4b45&#45;952a&#45;988d93b0a6a2</title>
<path fill="none" stroke="black" stroke-dasharray="5,2" d="M1738.39,-72.72C1743.64,-63.8 1749.5,-53.84 1754.73,-44.95"/>
<polygon fill="black" stroke="black" points="1757.85,-46.54 1759.91,-36.15 1751.82,-42.99 1757.85,-46.54"/>
</g>
</g>
</svg>
