<?xml version="1.0" encoding="UTF-8" standalone="no"?>
<!DOCTYPE svg PUBLIC "-//W3C//DTD SVG 1.1//EN"
 "http://www.w3.org/Graphics/SVG/1.1/DTD/svg11.dtd">
<!-- Generated by graphviz version 2.43.0 (0)
 -->
<!-- Title: %3 Pages: 1 -->
<svg width="2044pt" height="238pt"
 viewBox="0.00 0.00 2043.50 237.74" xmlns="http://www.w3.org/2000/svg" xmlns:xlink="http://www.w3.org/1999/xlink">
<g id="graph0" class="graph" transform="scale(1 1) rotate(0) translate(36 201.74)">
<title>%3</title>
<polygon fill="dimgray" stroke="transparent" points="-36,36 -36,-201.74 2007.5,-201.74 2007.5,36 -36,36"/>
<text text-anchor="middle" x="985.75" y="-150.54" font-family="Helvetica,sans-Serif" font-size="14.00">Sweep&#39;s Plan &amp; Progress</text>
<!-- start -->
<g id="node1" class="node">
<title>start</title>
</g>
<!-- de62e071&#45;58c3&#45;41cc&#45;b65f&#45;5d2c75159a9f -->
<g id="node3" class="node">
<title>de62e071&#45;58c3&#45;41cc&#45;b65f&#45;5d2c75159a9f</title>
<ellipse fill="#0ee832" stroke="black" cx="223" cy="-99.87" rx="105.22" ry="26.74"/>
<text text-anchor="middle" x="223" y="-103.67" font-family="Helvetica,sans-Serif" font-size="14.00">✓ Modify</text>
<text text-anchor="middle" x="223" y="-88.67" font-family="Helvetica,sans-Serif" font-size="14.00">src/scrapo/main.py</text>
</g>
<!-- start&#45;&gt;de62e071&#45;58c3&#45;41cc&#45;b65f&#45;5d2c75159a9f -->
<g id="edge10" class="edge">
<title>start&#45;&gt;de62e071&#45;58c3&#45;41cc&#45;b65f&#45;5d2c75159a9f</title>
<path fill="none" stroke="black" d="M66.7,-99.87C70.19,-99.87 86.41,-99.87 107.17,-99.87"/>
<polygon fill="black" stroke="black" points="107.34,-103.37 117.34,-99.87 107.34,-96.37 107.34,-103.37"/>
<text text-anchor="middle" x="92.07" y="-106.67" font-family="Helvetica,sans-Serif" font-size="14.00">Start</text>
</g>
<!-- end -->
<g id="node2" class="node">
<title>end</title>
</g>
<!-- 880373b0&#45;2490&#45;4158&#45;b08b&#45;e4eecb57bf92 -->
<g id="node4" class="node">
<title>880373b0&#45;2490&#45;4158&#45;b08b&#45;e4eecb57bf92</title>
<ellipse fill="white" stroke="black" cx="559" cy="-99.87" rx="143.59" ry="26.74"/>
<text text-anchor="middle" x="559" y="-103.67" font-family="Helvetica,sans-Serif" font-size="14.00">▶ Modify</text>
<text text-anchor="middle" x="559" y="-88.67" font-family="Helvetica,sans-Serif" font-size="14.00">src/scrapo/db_controller.py</text>
</g>
<!-- de62e071&#45;58c3&#45;41cc&#45;b65f&#45;5d2c75159a9f&#45;&gt;880373b0&#45;2490&#45;4158&#45;b08b&#45;e4eecb57bf92 -->
<g id="edge2" class="edge">
<title>de62e071&#45;58c3&#45;41cc&#45;b65f&#45;5d2c75159a9f&#45;&gt;880373b0&#45;2490&#45;4158&#45;b08b&#45;e4eecb57bf92</title>
<path fill="none" stroke="black" d="M328.66,-99.87C354.08,-99.87 379.49,-99.87 404.91,-99.87"/>
<polygon fill="black" stroke="black" points="405.04,-103.37 415.04,-99.87 405.04,-96.37 405.04,-103.37"/>
</g>
<!-- a0ec017c&#45;dff9&#45;4adc&#45;880c&#45;bd293321371c -->
<g id="node8" class="node">
<title>a0ec017c&#45;dff9&#45;4adc&#45;880c&#45;bd293321371c</title>
<polygon fill="yellow" stroke="black" points="344,-36 0,-36 0,0 344,0 344,-36"/>
<text text-anchor="middle" x="172" y="-14.3" font-family="Helvetica,sans-Serif" font-size="14.00">⋯ Run GitHub Actions for `src/scrapo/main.py`</text>
</g>
<!-- de62e071&#45;58c3&#45;41cc&#45;b65f&#45;5d2c75159a9f&#45;&gt;a0ec017c&#45;dff9&#45;4adc&#45;880c&#45;bd293321371c -->
<g id="edge1" class="edge">
<title>de62e071&#45;58c3&#45;41cc&#45;b65f&#45;5d2c75159a9f&#45;&gt;a0ec017c&#45;dff9&#45;4adc&#45;880c&#45;bd293321371c</title>
<path fill="none" stroke="black" stroke-dasharray="5,2" d="M206.58,-73.16C200.82,-64.13 194.34,-53.98 188.56,-44.94"/>
<polygon fill="black" stroke="black" points="191.4,-42.88 183.07,-36.34 185.5,-46.65 191.4,-42.88"/>
</g>
<!-- f38e7426&#45;9ad6&#45;4585&#45;b338&#45;c6b671e5a05a -->
<g id="node5" class="node">
<title>f38e7426&#45;9ad6&#45;4585&#45;b338&#45;c6b671e5a05a</title>
<ellipse fill="white" stroke="black" cx="971" cy="-99.87" rx="142.67" ry="26.74"/>
<text text-anchor="middle" x="971" y="-103.67" font-family="Helvetica,sans-Serif" font-size="14.00">▶ Modify</text>
<text text-anchor="middle" x="971" y="-88.67" font-family="Helvetica,sans-Serif" font-size="14.00">src/scrapo/scrapper/util.py</text>
</g>
<!-- 880373b0&#45;2490&#45;4158&#45;b08b&#45;e4eecb57bf92&#45;&gt;f38e7426&#45;9ad6&#45;4585&#45;b338&#45;c6b671e5a05a -->
<g id="edge4" class="edge">
<title>880373b0&#45;2490&#45;4158&#45;b08b&#45;e4eecb57bf92&#45;&gt;f38e7426&#45;9ad6&#45;4585&#45;b338&#45;c6b671e5a05a</title>
<path fill="none" stroke="black" d="M702.64,-99.87C740.97,-99.87 779.3,-99.87 817.63,-99.87"/>
<polygon fill="black" stroke="black" points="817.91,-103.37 827.91,-99.87 817.91,-96.37 817.91,-103.37"/>
</g>
<!-- 78faeb70&#45;b25b&#45;4a0c&#45;a33a&#45;6769d0e95542 -->
<g id="node9" class="node">
<title>78faeb70&#45;b25b&#45;4a0c&#45;a33a&#45;6769d0e95542</title>
<polygon fill="white" stroke="black" points="756,-36 362,-36 362,0 756,0 756,-36"/>
<text text-anchor="middle" x="559" y="-14.3" font-family="Helvetica,sans-Serif" font-size="14.00">▶ Run GitHub Actions for `src/scrapo/db_controller.py`</text>
</g>
<!-- 880373b0&#45;2490&#45;4158&#45;b08b&#45;e4eecb57bf92&#45;&gt;78faeb70&#45;b25b&#45;4a0c&#45;a33a&#45;6769d0e95542 -->
<g id="edge3" class="edge">
<title>880373b0&#45;2490&#45;4158&#45;b08b&#45;e4eecb57bf92&#45;&gt;78faeb70&#45;b25b&#45;4a0c&#45;a33a&#45;6769d0e95542</title>
<path fill="none" stroke="black" stroke-dasharray="5,2" d="M559,-72.72C559,-64.27 559,-54.89 559,-46.36"/>
<polygon fill="black" stroke="black" points="562.5,-46.15 559,-36.15 555.5,-46.15 562.5,-46.15"/>
</g>
<!-- bbeec47a&#45;2a3f&#45;4e3c&#45;9678&#45;e37132f52931 -->
<g id="node6" class="node">
<title>bbeec47a&#45;2a3f&#45;4e3c&#45;9678&#45;e37132f52931</title>
<ellipse fill="white" stroke="black" cx="1372" cy="-99.87" rx="128.89" ry="26.74"/>
<text text-anchor="middle" x="1372" y="-103.67" font-family="Helvetica,sans-Serif" font-size="14.00">▶ Modify</text>
<text text-anchor="middle" x="1372" y="-88.67" font-family="Helvetica,sans-Serif" font-size="14.00">src/scrapo/bot/reddit.py</text>
</g>
<!-- f38e7426&#45;9ad6&#45;4585&#45;b338&#45;c6b671e5a05a&#45;&gt;bbeec47a&#45;2a3f&#45;4e3c&#45;9678&#45;e37132f52931 -->
<g id="edge6" class="edge">
<title>f38e7426&#45;9ad6&#45;4585&#45;b338&#45;c6b671e5a05a&#45;&gt;bbeec47a&#45;2a3f&#45;4e3c&#45;9678&#45;e37132f52931</title>
<path fill="none" stroke="black" d="M1113.93,-99.87C1153.66,-99.87 1193.39,-99.87 1233.12,-99.87"/>
<polygon fill="black" stroke="black" points="1233.22,-103.37 1243.22,-99.87 1233.22,-96.37 1233.22,-103.37"/>
</g>
<!-- 0f4db16b&#45;6dd1&#45;4786&#45;93ca&#45;c1853e569949 -->
<g id="node10" class="node">
<title>0f4db16b&#45;6dd1&#45;4786&#45;93ca&#45;c1853e569949</title>
<polygon fill="white" stroke="black" points="1167.5,-36 774.5,-36 774.5,0 1167.5,0 1167.5,-36"/>
<text text-anchor="middle" x="971" y="-14.3" font-family="Helvetica,sans-Serif" font-size="14.00">▶ Run GitHub Actions for `src/scrapo/scrapper/util.py`</text>
</g>
<!-- f38e7426&#45;9ad6&#45;4585&#45;b338&#45;c6b671e5a05a&#45;&gt;0f4db16b&#45;6dd1&#45;4786&#45;93ca&#45;c1853e569949 -->
<g id="edge5" class="edge">
<title>f38e7426&#45;9ad6&#45;4585&#45;b338&#45;c6b671e5a05a&#45;&gt;0f4db16b&#45;6dd1&#45;4786&#45;93ca&#45;c1853e569949</title>
<path fill="none" stroke="black" stroke-dasharray="5,2" d="M971,-72.72C971,-64.27 971,-54.89 971,-46.36"/>
<polygon fill="black" stroke="black" points="974.5,-46.15 971,-36.15 967.5,-46.15 974.5,-46.15"/>
</g>
<!-- 11756890&#45;ae47&#45;4d4b&#45;a73a&#45;adef38e8e56d -->
<g id="node7" class="node">
<title>11756890&#45;ae47&#45;4d4b&#45;a73a&#45;adef38e8e56d</title>
<ellipse fill="white" stroke="black" cx="1727" cy="-99.87" rx="143.59" ry="26.74"/>
<text text-anchor="middle" x="1727" y="-103.67" font-family="Helvetica,sans-Serif" font-size="14.00">▶ Modify</text>
<text text-anchor="middle" x="1727" y="-88.67" font-family="Helvetica,sans-Serif" font-size="14.00">src/scrapo/bot/telegram.py</text>
</g>
<!-- bbeec47a&#45;2a3f&#45;4e3c&#45;9678&#45;e37132f52931&#45;&gt;11756890&#45;ae47&#45;4d4b&#45;a73a&#45;adef38e8e56d -->
<g id="edge8" class="edge">
<title>bbeec47a&#45;2a3f&#45;4e3c&#45;9678&#45;e37132f52931&#45;&gt;11756890&#45;ae47&#45;4d4b&#45;a73a&#45;adef38e8e56d</title>
<path fill="none" stroke="black" d="M1500.96,-99.87C1524.91,-99.87 1548.86,-99.87 1572.81,-99.87"/>
<polygon fill="black" stroke="black" points="1573.08,-103.37 1583.08,-99.87 1573.08,-96.37 1573.08,-103.37"/>
</g>
<!-- f1d8dd55&#45;fa96&#45;4ee1&#45;9858&#45;458ac817594b -->
<g id="node11" class="node">
<title>f1d8dd55&#45;fa96&#45;4ee1&#45;9858&#45;458ac817594b</title>
<polygon fill="white" stroke="black" points="1558.5,-36 1185.5,-36 1185.5,0 1558.5,0 1558.5,-36"/>
<text text-anchor="middle" x="1372" y="-14.3" font-family="Helvetica,sans-Serif" font-size="14.00">▶ Run GitHub Actions for `src/scrapo/bot/reddit.py`</text>
</g>
<!-- bbeec47a&#45;2a3f&#45;4e3c&#45;9678&#45;e37132f52931&#45;&gt;f1d8dd55&#45;fa96&#45;4ee1&#45;9858&#45;458ac817594b -->
<g id="edge7" class="edge">
<title>bbeec47a&#45;2a3f&#45;4e3c&#45;9678&#45;e37132f52931&#45;&gt;f1d8dd55&#45;fa96&#45;4ee1&#45;9858&#45;458ac817594b</title>
<path fill="none" stroke="black" stroke-dasharray="5,2" d="M1372,-72.72C1372,-64.27 1372,-54.89 1372,-46.36"/>
<polygon fill="black" stroke="black" points="1375.5,-46.15 1372,-36.15 1368.5,-46.15 1375.5,-46.15"/>
</g>
<!-- 11756890&#45;ae47&#45;4d4b&#45;a73a&#45;adef38e8e56d&#45;&gt;end -->
<g id="edge11" class="edge">
<title>11756890&#45;ae47&#45;4d4b&#45;a73a&#45;adef38e8e56d&#45;&gt;end</title>
<path fill="none" stroke="black" d="M1870.57,-99.87C1890.37,-99.87 1907.5,-99.87 1918,-99.87"/>
<polygon fill="black" stroke="black" points="1918.34,-103.37 1928.34,-99.87 1918.34,-96.37 1918.34,-103.37"/>
<text text-anchor="middle" x="1899.52" y="-106.67" font-family="Helvetica,sans-Serif" font-size="14.00">Finish</text>
</g>
<!-- fc53871d&#45;3431&#45;4b45&#45;952a&#45;988d93b0a6a2 -->
<g id="node12" class="node">
<title>fc53871d&#45;3431&#45;4b45&#45;952a&#45;988d93b0a6a2</title>
<polygon fill="white" stroke="black" points="1971.5,-36 1576.5,-36 1576.5,0 1971.5,0 1971.5,-36"/>
<text text-anchor="middle" x="1774" y="-14.3" font-family="Helvetica,sans-Serif" font-size="14.00">▶ Run GitHub Actions for `src/scrapo/bot/telegram.py`</text>
</g>
<!-- 11756890&#45;ae47&#45;4d4b&#45;a73a&#45;adef38e8e56d&#45;&gt;fc53871d&#45;3431&#45;4b45&#45;952a&#45;988d93b0a6a2 -->
<g id="edge9" class="edge">
<title>11756890&#45;ae47&#45;4d4b&#45;a73a&#45;adef38e8e56d&#45;&gt;fc53871d&#45;3431&#45;4b45&#45;952a&#45;988d93b0a6a2</title>
<path fill="none" stroke="black" stroke-dasharray="5,2" d="M1742.39,-72.72C1747.64,-63.8 1753.5,-53.84 1758.73,-44.95"/>
<polygon fill="black" stroke="black" points="1761.85,-46.54 1763.91,-36.15 1755.82,-42.99 1761.85,-46.54"/>
</g>
</g>
</svg>
